<svg width="220" height="217" viewBox="0 0 220 217" fill="none" xmlns="http://www.w3.org/2000/svg">
<g clip-path="url(#clip0)">
<path d="M48.12 116.77L34.05 130C33.604 130.424 33.2489 130.934 33.0063 131.5C32.7636 132.066 32.6385 132.675 32.6385 133.29C32.6385 133.905 32.7636 134.514 33.0063 135.08C33.2489 135.646 33.604 136.156 34.05 136.58C41.66 143.91 53.14 154 53.14 154C53.14 154 86 182.77 100.19 203.15L108.29 214.79C108.713 215.398 109.278 215.894 109.936 216.233C110.594 216.573 111.326 216.746 112.066 216.738C112.807 216.731 113.534 216.542 114.185 216.188C114.836 215.834 115.39 215.327 115.8 214.71L123.63 202.88C137.32 182.22 170.86 152.48 170.86 152.48C170.86 152.48 181 143.48 188.03 136.8C188.481 136.369 188.839 135.85 189.081 135.274C189.322 134.699 189.442 134.079 189.434 133.455C189.425 132.831 189.288 132.216 189.031 131.647C188.774 131.078 188.403 130.569 187.94 130.15L173.64 117.15C172.786 116.374 171.667 115.953 170.513 115.973C169.359 115.994 168.256 116.454 167.43 117.26L114.73 168.46C113.886 169.275 112.758 169.73 111.585 169.73C110.412 169.73 109.284 169.275 108.44 168.46L54.37 116.79C53.5278 115.989 52.4111 115.541 51.249 115.537C50.0868 115.533 48.9672 115.975 48.12 116.77Z" fill="#FF686B"/>
<path d="M56.77 0.680053C41.5606 2.40034 27.473 9.51958 17.0668 20.7442C6.66051 31.9689 0.626114 46.5542 0.0599941 61.8501C-0.720006 84.4301 5.80999 101.52 16.11 116.12C16.2891 116.378 16.5218 116.594 16.7922 116.754C17.0627 116.914 17.3645 117.013 17.6769 117.046C17.9894 117.078 18.3051 117.042 18.6025 116.941C18.8999 116.84 19.1719 116.676 19.4 116.46L37.11 99.7801C37.48 99.439 37.7186 98.9791 37.7844 98.4802C37.8502 97.9814 37.7389 97.4753 37.47 97.0501C31.3889 87.6533 28.2131 76.6722 28.34 65.4801C28.3559 55.6419 32.2725 46.2116 39.2309 39.2569C46.1894 32.3021 55.6219 28.3906 65.46 28.3801C73.2726 28.6246 80.8474 31.1252 87.27 35.5801C89.95 37.5801 94.9 41.6701 98.27 44.5001C98.5886 44.767 98.9768 44.9372 99.3889 44.9908C99.801 45.0444 100.22 44.9791 100.596 44.8025C100.972 44.626 101.29 44.3455 101.512 43.9943C101.735 43.6431 101.852 43.2356 101.85 42.8201V12.0601C101.852 11.5176 101.652 10.9938 101.29 10.5901C98.73 7.77005 87 -2.74995 56.77 0.680053Z" fill="#FF686B"/>
<path d="M162.81 0.680053C178.019 2.40034 192.107 9.51958 202.513 20.7442C212.919 31.9689 218.954 46.5542 219.52 61.8501C220.31 84.4301 213.78 101.52 203.52 116.12C203.341 116.378 203.108 116.594 202.838 116.754C202.567 116.914 202.266 117.013 201.953 117.046C201.641 117.078 201.325 117.042 201.028 116.941C200.73 116.84 200.458 116.676 200.23 116.46L182.47 99.7801C182.105 99.4359 181.87 98.9764 181.804 98.4791C181.739 97.9818 181.847 97.4771 182.11 97.0501C188.195 87.6553 191.372 76.6728 191.24 65.4801C191.227 55.6429 187.312 46.2125 180.356 39.2575C173.399 32.3025 163.967 28.3906 154.13 28.3801C146.317 28.6246 138.743 31.1252 132.32 35.5801C129.64 37.5801 124.69 41.6701 121.32 44.5001C121.001 44.767 120.613 44.9372 120.201 44.9908C119.789 45.0444 119.37 44.9791 118.994 44.8025C118.618 44.626 118.3 44.3455 118.078 43.9943C117.855 43.6431 117.738 43.2356 117.74 42.8201V12.0601C117.737 11.5156 117.941 10.9902 118.31 10.5901C120.86 7.77005 132.62 -2.74995 162.81 0.680053Z" fill="#FF686B"/>
<path d="M202.16 200.42C202.236 203.009 201.536 205.562 200.151 207.751C198.766 209.94 196.758 211.666 194.385 212.706C192.013 213.746 189.384 214.054 186.835 213.589C184.287 213.125 181.935 211.91 180.082 210.1C178.229 208.289 176.959 205.967 176.434 203.43C175.91 200.893 176.156 198.257 177.14 195.861C178.124 193.465 179.802 191.417 181.958 189.981C184.114 188.545 186.65 187.785 189.24 187.8C190.92 187.768 192.59 188.071 194.152 188.69C195.715 189.309 197.138 190.233 198.34 191.407C199.542 192.581 200.499 193.983 201.155 195.53C201.811 197.077 202.152 198.74 202.16 200.42ZM179.47 200.42C179.428 201.735 179.652 203.045 180.129 204.271C180.606 205.497 181.325 206.614 182.244 207.555C183.163 208.496 184.262 209.242 185.476 209.748C186.691 210.254 187.995 210.51 189.31 210.5C190.604 210.496 191.885 210.231 193.075 209.722C194.265 209.213 195.34 208.47 196.238 207.537C197.135 206.604 197.836 205.501 198.298 204.292C198.761 203.083 198.976 201.794 198.93 200.5C198.93 194.88 194.85 190.34 189.24 190.34C187.932 190.344 186.637 190.609 185.433 191.121C184.229 191.632 183.14 192.38 182.229 193.319C181.318 194.259 180.605 195.371 180.131 196.591C179.657 197.81 179.433 199.112 179.47 200.42ZM187.24 207.04H184.31V194.42C185.911 194.136 187.535 194.006 189.16 194.03C190.679 193.907 192.202 194.23 193.54 194.96C193.942 195.299 194.262 195.724 194.477 196.203C194.692 196.683 194.795 197.205 194.78 197.73C194.724 198.437 194.438 199.106 193.964 199.633C193.491 200.161 192.857 200.518 192.16 200.65V200.8C192.787 201.058 193.332 201.48 193.739 202.022C194.146 202.564 194.398 203.206 194.47 203.88C194.593 204.978 194.905 206.047 195.39 207.04H192.24C191.751 206.07 191.414 205.032 191.24 203.96C191.01 202.57 190.24 201.96 188.62 201.96H187.24V207.04ZM187.31 199.88H188.7C190.31 199.88 191.62 199.34 191.62 198.03C191.62 196.88 190.77 196.11 188.93 196.11C188.386 196.102 187.843 196.152 187.31 196.26V199.88Z" fill="#FF686B"/>
</g>
<defs>
<clipPath id="clip0">
<rect width="219.59" height="216.74" fill="white"/>
</clipPath>
</defs>
</svg>
